<svg xmlns="http://www.w3.org/2000/svg"  viewBox="0 0 64 64" width="64px" height="64px" fill="#ed7899"><path fill="#ed7899" d="M37 10A6 6 0 1 0 37 22A6 6 0 1 0 37 10Z"/><path fill="#72caaf" d="M37 40A6 6 0 1 0 37 52A6 6 0 1 0 37 40Z"/><path fill="#85cbf8" d="M51 25A6 6 0 1 0 51 37 6 6 0 1 0 51 25zM36.832 57.948c0 .426-.235.688-.376.805-.141.118-.435.304-.859.231h.001l-30.69-5.416c-1.007-.178-1.738-1.049-1.738-2.072V10.504c0-1.023.731-1.894 1.738-2.072l30.69-5.416c.424-.071.719.113.859.231.141.117.376.379.376.805V57.948z"/><path fill="#6fc6f0" d="M7.031,30c-2.221,0-4.017,1.81-4,4.031l0.137,17.465c0,1.023,0.731,1.894,1.738,2.072l30.69,5.416h0 c0.424,0.073,0.719-0.113,0.859-0.231c0.141-0.117,0.376-0.379,0.376-0.805l0.144-23.923c0.013-2.219-1.781-4.024-4-4.024H7.031z"/><path fill="#9fddff" d="M36.456,3.247c-0.141-0.118-0.435-0.302-0.859-0.231L4.907,8.432 C3.899,8.61,3.168,9.481,3.168,10.504v4c0-1.023,0.731-1.894,1.738-2.072l30.69-5.416c0.424-0.071,0.719,0.113,0.859,0.231 c0.141,0.117,0.376,0.379,0.376,0.805v-4C36.832,3.626,36.596,3.364,36.456,3.247z"/><path fill="#8d6c9f" d="M51.39,24.02c-1.57-3.23-4.19-5.85-7.42-7.42C43.99,16.4,44,16.2,44,16c0-3.52-2.61-6.44-6-6.92 v-3.7c0-0.88-0.39-1.72-1.07-2.29c-0.68-0.58-1.58-0.82-2.45-0.66L5.3,7.58C3.39,7.92,2,9.57,2,11.52v38.96 c0,1.95,1.39,3.6,3.3,3.94l29.18,5.15c0.17,0.03,0.35,0.05,0.52,0.05c0.7,0,1.38-0.25,1.93-0.71C37.61,58.34,38,57.5,38,56.62 v-3.7c3.39-0.48,6-3.4,6-6.92c0-0.2-0.01-0.4-0.03-0.6c3.23-1.57,5.85-4.19,7.42-7.42C55.07,37.78,58,34.73,58,31 C58,27.27,55.07,24.22,51.39,24.02z M41.99,15.8C42,15.87,42,15.93,42,16c0,0.63-0.12,1.24-0.33,1.8 c-0.61,1.57-1.99,2.76-3.67,3.1v-9.8C40.22,11.55,41.9,13.47,41.99,15.8z M36,56.62c0,0.4-0.22,0.65-0.36,0.76 c-0.13,0.11-0.41,0.29-0.81,0.22L5.65,52.45C4.69,52.28,4,51.46,4,50.48V11.52c0-0.98,0.69-1.8,1.65-1.97L34.83,4.4 c0.4-0.07,0.68,0.11,0.81,0.22C35.78,4.73,36,4.98,36,5.38v3.7v2.02v9.8v2.02v16.16v2.02v9.8v2.02V56.62z M38,50.9v-9.8 c1.68,0.34,3.06,1.53,3.67,3.1C41.88,44.76,42,45.37,42,46c0,0.07,0,0.13-0.01,0.2C41.9,48.53,40.22,50.45,38,50.9z M43.5,43.4 c-0.92-2.28-3-3.97-5.5-4.32V22.92c2.5-0.35,4.58-2.04,5.5-4.32c2.42,1.28,4.42,3.24,5.75,5.63C46.23,25,44,27.74,44,31 s2.23,6,5.25,6.77C47.92,40.16,45.92,42.12,43.5,43.4z M52.25,35.84C51.85,35.95,51.43,36,51,36c-0.3,0-0.6-0.03-0.89-0.08 C47.77,35.5,46,33.46,46,31c0-2.46,1.77-4.5,4.11-4.92C50.4,26.03,50.7,26,51,26c0.43,0,0.85,0.05,1.25,0.16 C54.41,26.71,56,28.67,56,31C56,33.33,54.41,35.29,52.25,35.84z"/><path fill="#fff" d="M19,22h2c1.654,0,3,1.346,3,3c0,0.553,0.448,1,1,1s1-0.447,1-1c0-2.757-2.243-5-5-5h-2 c-2.757,0-5,2.243-5,5v2c0,2.757,2.243,5,5,5h2c1.654,0,3,1.346,3,3v2c0,1.654-1.346,3-3,3h-2c-1.654,0-3-1.346-3-3 c0-0.553-0.448-1-1-1s-1,0.447-1,1c0,2.757,2.243,5,5,5h2c2.757,0,5-2.243,5-5v-2c0-2.757-2.243-5-5-5h-2c-1.654,0-3-1.346-3-3v-2 C16,23.346,17.346,22,19,22z"/><path fill="#8d6c9f" d="M63 30h-2c-.552 0-1 .447-1 1s.448 1 1 1h2c.552 0 1-.447 1-1S63.552 30 63 30zM55.5 23.206c.158.091.33.134.499.134.346 0 .682-.18.867-.5l1-1.732c.276-.479.112-1.09-.366-1.366-.48-.276-1.09-.111-1.366.366l-1 1.732C54.858 22.318 55.022 22.93 55.5 23.206zM59.661 27c.169 0 .342-.043.499-.134l1.732-1c.479-.276.642-.888.366-1.366-.276-.479-.889-.643-1.366-.366l-1.732 1c-.479.276-.642.888-.366 1.366C58.979 26.821 59.315 27 59.661 27zM56.866 39.16c-.277-.478-.887-.643-1.366-.366-.478.276-.642.888-.366 1.366l1 1.732c.186.32.521.5.867.5.169 0 .341-.043.499-.134.478-.276.642-.888.366-1.366L56.866 39.16zM61.892 36.134l-1.732-1c-.479-.277-1.09-.112-1.366.366-.276.479-.112 1.09.366 1.366l1.732 1C61.049 37.957 61.222 38 61.391 38c.346 0 .682-.179.867-.5C62.534 37.021 62.371 36.41 61.892 36.134z"/></svg>